# xmcd CD database file
#
# Track frame offsets:
#	150
#	17896
#	37993
#	55222
#	74360
#	83626
#	91106
#	126941
#	138935
#	181866
#	199670
#	223326
#
# Disc length: 3290 seconds
#
# Revision: 1
# Processed by: cddbd v1.5.1PL0 Copyright (c) Steve Scherf et al.
# Submitted via: CDex 1.51
#
DISCID=a40cd80c
DTITLE=DISCOVERY/ivory - 桜待坂Storiesサウンドステージ1 〜Side-F 真夏の夜の花火〜
DYEAR=2004
DGENRE=Game
TTITLE0=『Cherish!』 ＜SS-MIX＞
TTITLE1=ドラマ「真夏のお昼ごはん」
TTITLE2=ドラマ「納涼そうめん会」
TTITLE3=ドラマ「お勉強ターイム」
TTITLE4=ドラマ「理紗子帰る」
TTITLE5=ドラマ「河原 ＤＥ 花火」
TTITLE6=ドラマ「遭遇・再会」
TTITLE7=ドラマ「最後のロケット」
TTITLE8=ドラマ「遠い日の花火」
TTITLE9=『Cherish!』 ＜SS-MIX カラオケ＞
TTITLE10=『Flowers』 ＜New Vocal Song＞
TTITLE11=『Flowers』 ＜カラオケ＞
EXTD=YEAR: 2004
EXTT0=
EXTT1=
EXTT2=
EXTT3=
EXTT4=
EXTT5=
EXTT6=
EXTT7=
EXTT8=
EXTT9=
EXTT10=
EXTT11=
PLAYORDER=
